<svg xmlns="http://www.w3.org/2000/svg" width="820" height="460" viewBox="0 0 820 460">
<rect width="100%" height="100%" fill="white"/><line x1="65" y1="395" x2="755" y2="395" stroke="black"/><line x1="65" y1="65" x2="65" y2="395" stroke="black"/><line x1="65" y1="98.0" x2="755" y2="98.0" stroke="#999" stroke-dasharray="5 5"/>
<polyline points="112.9,183.8 160.8,65.0 232.7,65.0 304.5,395.0 520.1,65.0 538.1,65.0 556.1,117.8 574.0,144.2 592.0,167.3" fill="none" stroke="#2563eb" stroke-width="2"/><polyline points="97.2,65.0 129.5,65.0 177.8,65.0 226.2,65.0 274.5,71.6 322.8,78.2 371.2,68.3 383.3,71.6 395.4,74.9 407.5,121.1 419.5,170.6" fill="none" stroke="#dc2626" stroke-width="2"/><polyline points="284.5,78.2 308.1,94.7 331.6,94.7 355.1,107.9 378.6,121.1 472.7,381.8 566.8,338.9 660.9,358.7 755.0,395.0" fill="none" stroke="#059669" stroke-width="2"/><text x="600" y="35" fill="#2563eb">balanced</text><text x="600" y="53" fill="#dc2626">decode_heavy</text><text x="600" y="71" fill="#059669">prefill_heavy</text><text x="410.0" y="445" text-anchor="middle">target arrival rate (requests/s)</text><text x="18" y="230.0" transform="rotate(-90 18 230.0)" text-anchor="middle">joint SLO attainment</text><text x="410.0" y="25" text-anchor="middle">Stock-Auto Poisson capacity knee (seed mean)</text></svg>
